<svg width="200" height="60" viewBox="0 0 200 60" xmlns="http://www.w3.org/2000/svg">
  <defs>
    <linearGradient id="logoGradient" x1="0%" y1="0%" x2="100%" y2="100%">
      <stop offset="0%" style="stop-color:#6ba3d6;stop-opacity:1" />
      <stop offset="100%" style="stop-color:#4a6d8c;stop-opacity:1" />
    </linearGradient>
  </defs>
  
  <!-- Shield Background -->
  <path d="M15 10 L35 10 Q40 10 40 15 L40 35 Q40 45 30 50 L25 52 Q25 52 25 52 Q25 52 20 50 Q10 45 10 35 L10 15 Q10 10 15 10 Z" fill="url(#logoGradient)" stroke="#1a2744" stroke-width="1"/>
  
  <!-- G in Shield -->
  <text x="25" y="35" font-family="Orbitron, sans-serif" font-size="20" font-weight="700" fill="white" text-anchor="middle">G</text>
  
  <!-- Company Name -->
  <text x="55" y="25" font-family="Orbitron, sans-serif" font-size="16" font-weight="700" fill="#1a2744">Genesis</text>
  <text x="55" y="42" font-family="Inter, sans-serif" font-size="12" font-weight="600" fill="#4a6d8c">LEGACY AI</text>
  
  <!-- Neural Network Elements -->
  <circle cx="160" cy="15" r="2" fill="#6ba3d6" opacity="0.7"/>
  <circle cx="170" cy="20" r="1.5" fill="#4a6d8c" opacity="0.6"/>
  <circle cx="180" cy="25" r="1" fill="#6ba3d6" opacity="0.5"/>
  <circle cx="165" cy="35" r="1.5" fill="#4a6d8c" opacity="0.6"/>
  <circle cx="175" cy="45" r="2" fill="#6ba3d6" opacity="0.7"/>
  
  <!-- Connecting Lines -->
  <line x1="160" y1="15" x2="170" y2="20" stroke="#6ba3d6" stroke-width="0.5" opacity="0.4"/>
  <line x1="170" y1="20" x2="180" y2="25" stroke="#4a6d8c" stroke-width="0.5" opacity="0.3"/>
  <line x1="165" y1="35" x2="175" y2="45" stroke="#6ba3d6" stroke-width="0.5" opacity="0.4"/>
  
</svg>